<mxfile host="app.diagrams.net" modified="2024-02-14T07:30:32.301Z" agent="Mozilla/5.0 (Windows NT 10.0; Win64; x64) AppleWebKit/537.36 (KHTML, like Gecko) Chrome/121.0.0.0 Safari/537.36" etag="r4uvGl8klXbm2BZNian1" version="23.1.4" type="github">
  <diagram id="C5RBs43oDa-KdzZeNtuy" name="Page-1">
    <mxGraphModel dx="334" dy="119" grid="1" gridSize="10" guides="1" tooltips="1" connect="1" arrows="1" fold="1" page="1" pageScale="1" pageWidth="827" pageHeight="1169" math="0" shadow="0">
      <root>
        <mxCell id="WIyWlLk6GJQsqaUBKTNV-0" />
        <mxCell id="WIyWlLk6GJQsqaUBKTNV-1" parent="WIyWlLk6GJQsqaUBKTNV-0" />
        <mxCell id="58nYaRsRwZ1nYf6VexwY-2" style="edgeStyle=orthogonalEdgeStyle;rounded=0;orthogonalLoop=1;jettySize=auto;html=1;entryX=0.5;entryY=0;entryDx=0;entryDy=0;" edge="1" parent="WIyWlLk6GJQsqaUBKTNV-1" source="58nYaRsRwZ1nYf6VexwY-0" target="58nYaRsRwZ1nYf6VexwY-1">
          <mxGeometry relative="1" as="geometry" />
        </mxCell>
        <mxCell id="58nYaRsRwZ1nYf6VexwY-0" value="начало" style="ellipse;whiteSpace=wrap;html=1;" vertex="1" parent="WIyWlLk6GJQsqaUBKTNV-1">
          <mxGeometry x="470" y="10" width="120" height="40" as="geometry" />
        </mxCell>
        <mxCell id="58nYaRsRwZ1nYf6VexwY-4" style="edgeStyle=orthogonalEdgeStyle;rounded=0;orthogonalLoop=1;jettySize=auto;html=1;entryX=0.5;entryY=0;entryDx=0;entryDy=0;" edge="1" parent="WIyWlLk6GJQsqaUBKTNV-1" source="58nYaRsRwZ1nYf6VexwY-1" target="58nYaRsRwZ1nYf6VexwY-3">
          <mxGeometry relative="1" as="geometry" />
        </mxCell>
        <mxCell id="58nYaRsRwZ1nYf6VexwY-1" value="ввод E" style="shape=parallelogram;perimeter=parallelogramPerimeter;whiteSpace=wrap;html=1;fixedSize=1;" vertex="1" parent="WIyWlLk6GJQsqaUBKTNV-1">
          <mxGeometry x="470" y="90" width="120" height="40" as="geometry" />
        </mxCell>
        <mxCell id="58nYaRsRwZ1nYf6VexwY-6" style="edgeStyle=orthogonalEdgeStyle;rounded=0;orthogonalLoop=1;jettySize=auto;html=1;entryX=0.5;entryY=0;entryDx=0;entryDy=0;" edge="1" parent="WIyWlLk6GJQsqaUBKTNV-1" source="58nYaRsRwZ1nYf6VexwY-3" target="58nYaRsRwZ1nYf6VexwY-5">
          <mxGeometry relative="1" as="geometry" />
        </mxCell>
        <mxCell id="58nYaRsRwZ1nYf6VexwY-13" style="edgeStyle=orthogonalEdgeStyle;rounded=0;orthogonalLoop=1;jettySize=auto;html=1;entryX=1.014;entryY=0.4;entryDx=0;entryDy=0;entryPerimeter=0;" edge="1" parent="WIyWlLk6GJQsqaUBKTNV-1" source="58nYaRsRwZ1nYf6VexwY-3" target="58nYaRsRwZ1nYf6VexwY-12">
          <mxGeometry relative="1" as="geometry">
            <mxPoint x="700" y="640" as="targetPoint" />
            <Array as="points">
              <mxPoint x="710" y="190" />
              <mxPoint x="710" y="640" />
            </Array>
          </mxGeometry>
        </mxCell>
        <mxCell id="58nYaRsRwZ1nYf6VexwY-3" value="E &amp;gt; 0" style="rhombus;whiteSpace=wrap;html=1;shadow=0;fontFamily=Helvetica;fontSize=12;align=center;strokeWidth=1;spacing=6;spacingTop=-4;" vertex="1" parent="WIyWlLk6GJQsqaUBKTNV-1">
          <mxGeometry x="480" y="160" width="100" height="60" as="geometry" />
        </mxCell>
        <mxCell id="58nYaRsRwZ1nYf6VexwY-10" style="edgeStyle=orthogonalEdgeStyle;rounded=0;orthogonalLoop=1;jettySize=auto;html=1;entryX=0.5;entryY=0;entryDx=0;entryDy=0;" edge="1" parent="WIyWlLk6GJQsqaUBKTNV-1" source="58nYaRsRwZ1nYf6VexwY-5" target="58nYaRsRwZ1nYf6VexwY-7">
          <mxGeometry relative="1" as="geometry" />
        </mxCell>
        <mxCell id="58nYaRsRwZ1nYf6VexwY-5" value="S += (n + 5)/(2&lt;span style=&quot;box-sizing: border-box; font-weight: var(--base-text-weight-semibold, 600); color: rgb(31, 35, 40); font-family: -apple-system, BlinkMacSystemFont, &amp;quot;Segoe UI&amp;quot;, &amp;quot;Noto Sans&amp;quot;, Helvetica, Arial, sans-serif, &amp;quot;Apple Color Emoji&amp;quot;, &amp;quot;Segoe UI Emoji&amp;quot;; font-size: 16px; text-align: start; background-color: rgb(255, 255, 255);&quot;&gt;n + 2)&lt;/span&gt;" style="rounded=0;whiteSpace=wrap;html=1;" vertex="1" parent="WIyWlLk6GJQsqaUBKTNV-1">
          <mxGeometry x="470" y="250" width="120" height="50" as="geometry" />
        </mxCell>
        <mxCell id="58nYaRsRwZ1nYf6VexwY-11" style="edgeStyle=orthogonalEdgeStyle;rounded=0;orthogonalLoop=1;jettySize=auto;html=1;entryX=0.5;entryY=0;entryDx=0;entryDy=0;" edge="1" parent="WIyWlLk6GJQsqaUBKTNV-1" source="58nYaRsRwZ1nYf6VexwY-7" target="58nYaRsRwZ1nYf6VexwY-8">
          <mxGeometry relative="1" as="geometry" />
        </mxCell>
        <mxCell id="58nYaRsRwZ1nYf6VexwY-7" value="((n - 1 + 5)/(2&lt;span style=&quot;color: rgb(31, 35, 40); font-family: -apple-system, BlinkMacSystemFont, &amp;quot;Segoe UI&amp;quot;, &amp;quot;Noto Sans&amp;quot;, Helvetica, Arial, sans-serif, &amp;quot;Apple Color Emoji&amp;quot;, &amp;quot;Segoe UI Emoji&amp;quot;; font-size: 16px; text-align: start; background-color: rgb(255, 255, 255);&quot;&gt;(n - 1) + 2) - (n + 5)/(2&lt;/span&gt;&lt;span style=&quot;box-sizing: border-box; font-weight: var(--base-text-weight-semibold, 600); color: rgb(31, 35, 40); font-family: -apple-system, BlinkMacSystemFont, &amp;quot;Segoe UI&amp;quot;, &amp;quot;Noto Sans&amp;quot;, Helvetica, Arial, sans-serif, &amp;quot;Apple Color Emoji&amp;quot;, &amp;quot;Segoe UI Emoji&amp;quot;; font-size: 16px; text-align: start; background-color: rgb(255, 255, 255);&quot;&gt;n + 2)) &amp;lt;= E и S &amp;gt;= E&lt;/span&gt;" style="rhombus;whiteSpace=wrap;html=1;shadow=0;fontFamily=Helvetica;fontSize=12;align=center;strokeWidth=1;spacing=6;spacingTop=-4;" vertex="1" parent="WIyWlLk6GJQsqaUBKTNV-1">
          <mxGeometry x="415" y="320" width="230" height="120" as="geometry" />
        </mxCell>
        <mxCell id="58nYaRsRwZ1nYf6VexwY-8" value="продолжить" style="rounded=0;whiteSpace=wrap;html=1;" vertex="1" parent="WIyWlLk6GJQsqaUBKTNV-1">
          <mxGeometry x="470" y="470" width="120" height="50" as="geometry" />
        </mxCell>
        <mxCell id="58nYaRsRwZ1nYf6VexwY-12" value="конец" style="rounded=0;whiteSpace=wrap;html=1;" vertex="1" parent="WIyWlLk6GJQsqaUBKTNV-1">
          <mxGeometry x="470" y="620" width="120" height="50" as="geometry" />
        </mxCell>
      </root>
    </mxGraphModel>
  </diagram>
</mxfile>
